/* XPM */
static char * 1_xpm[] = {
"20 20 64 1",
" 	c #FFFFFF",
".	c #F7F7F7",
"+	c #CFCFCF",
"@	c #CECECE",
"#	c #3C3C3C",
"$	c #242424",
"%	c #BABABA",
"&	c #EFEFEF",
"*	c #7E7E7E",
"=	c #0E0E0E",
"-	c #000000",
";	c #666666",
">	c #E8E8E8",
",	c #656565",
"'	c #131313",
")	c #030303",
"!	c #070707",
"~	c #9D9D9D",
"{	c #EAEAEA",
"]	c #595959",
"^	c #212121",
"/	c #282828",
"(	c #0F0F0F",
"_	c #ACACAC",
":	c #FCFCFC",
"<	c #DFDFDF",
"[	c #626262",
"}	c #080808",
"|	c #1A1A1A",
"1	c #8A8A8A",
"2	c #121212",
"3	c #E7E7E7",
"4	c #5F5F5F",
"5	c #262626",
"6	c #9A9A9A",
"7	c #6F6F6F",
"8	c #CACACA",
"9	c #2E2E2E",
"0	c #8D8D8D",
"a	c #E5E5E5",
"b	c #141414",
"c	c #AFAFAF",
"d	c #F5F5F5",
"e	c #C0C0C0",
"f	c #ADADAD",
"g	c #CDCDCD",
"h	c #3F3F3F",
"i	c #353535",
"j	c #C6C6C6",
"k	c #C9C9C9",
"l	c #3A3A3A",
"m	c #BCBCBC",
"n	c #363636",
"o	c #888888",
"p	c #2C2C2C",
"q	c #A5A5A5",
"r	c #E9E9E9",
"s	c #B5B5B5",
"t	c #191919",
"u	c #7D7D7D",
"v	c #ECECEC",
"w	c #F2F2F2",
"x	c #BBBBBB",
"y	c #E2E2E2",
"                    ",
"        .++.        ",
"        @#$%        ",
"       &*=-;        ",
"      >,')!~        ",
"     {]-^/(_        ",
"   :<[}|1,2_        ",
"   34-56<72_        ",
"   89=0.a,bc        ",
"   def& ghij        ",
"        kllk        ",
"        kllk        ",
"        m/nk        ",
"        o-p@        ",
"        q=4a        ",
"        _27r        ",
"        stuv        ",
"        wxy:        ",
"                    ",
"                    "};
