/* XPM */
static char * 2_xpm[] = {
"20 20 77 1",
" 	c #FFFFFF",
".	c #FDFEFC",
"+	c #F3F9ED",
"@	c #F1F8EA",
"#	c #FAFCF7",
"$	c #DAECC7",
"%	c #B5DA90",
"&	c #A6D37B",
"*	c #A4D278",
"=	c #A8D37E",
"-	c #C0E0A1",
";	c #F5FAF0",
">	c #CCE6B3",
",	c #7EBF3F",
"'	c #62B116",
")	c #67B31C",
"!	c #68B41F",
"~	c #67B31D",
"{	c #5DAE0E",
"]	c #A0D072",
"^	c #F2F8EB",
"/	c #E1F0D3",
"(	c #89C44F",
"_	c #7DBE3E",
":	c #95CA61",
"<	c #CAE5B1",
"[	c #B5DA91",
"}	c #73B92E",
"|	c #63B117",
"1	c #BFDFA0",
"2	c #DDEECC",
"3	c #82C045",
"4	c #81C044",
"5	c #D4EAC0",
"6	c #E0EFD1",
"7	c #81C043",
"8	c #6FB729",
"9	c #CDE6B4",
"0	c #86C34B",
"a	c #77BB35",
"b	c #D6EAC2",
"c	c #EEF7E6",
"d	c #9DCE6D",
"e	c #69B420",
"f	c #CCE5B2",
"g	c #A7D37D",
"h	c #68B31E",
"i	c #C9E4AF",
"j	c #D8ECC5",
"k	c #83C147",
"l	c #B9DC97",
"m	c #E6F2D9",
"n	c #BADC98",
"o	c #E7F3DB",
"p	c #8BC553",
"q	c #CBE5B2",
"r	c #76BB34",
"s	c #DDEECD",
"t	c #B4DA8F",
"u	c #65B21A",
"v	c #F0F8E9",
"w	c #7ABD39",
"x	c #BCDE9C",
"y	c #CFE7B7",
"z	c #8AC551",
"A	c #7BBD3A",
"B	c #EDF6E5",
"C	c #6DB626",
"D	c #5FAF11",
"E	c #97CB64",
"F	c #BCDD9B",
"G	c #C5E2A9",
"H	c #5EAF10",
"I	c #F7FBF3",
"J	c #ACD583",
"K	c #A9D47F",
"L	c #ADD685",
"       .+@+.        ",
"     #$%&*=-;       ",
"    #>,')!~{]^      ",
"    /(_:-<[}|1      ",
"    2345. 6789      ",
"    /0ab  cdef      ",
"    #&{%  +ghi      ",
"     jkj  .l{-      ",
"     #m#   1{1      ",
"          .n{-      ",
"          op!q      ",
"          %{rs      ",
"         #tudv      ",
"        .5w{x.      ",
"     .@myz!As       ",
"     B*,CD'EF11G;   ",
"     5!H{{{{{{{{>   ",
"     I<JKLF1111G;   ",
"                    ",
"                    "};
