/* XPM */
static char * 4_xpm[] = {
"20 20 58 1",
" 	c #FFFFFF",
".	c #F0F3FD",
"+	c #B5C2F5",
"@	c #AABAF4",
"#	c #123EE0",
"$	c #FCFDFF",
"%	c #9AADF2",
"&	c #A3B4F3",
"*	c #EDF1FD",
"=	c #8097EE",
"-	c #224BE2",
";	c #B0BFF5",
">	c #E5EAFC",
",	c #C1CCF7",
"'	c #F3F5FD",
")	c #EBEEFC",
"!	c #7992ED",
"~	c #234CE2",
"{	c #B2C0F5",
"]	c #879DEF",
"^	c #2951E3",
"/	c #BAC7F6",
"(	c #DFE5FB",
"_	c #627FEA",
":	c #274FE3",
"<	c #7C94EE",
"[	c #A6B6F3",
"}	c #869DEF",
"|	c #EAEEFC",
"1	c #6682EB",
"2	c #8198EE",
"3	c #728CED",
"4	c #9FB1F2",
"5	c #758FED",
"6	c #4769E7",
"7	c #2C53E4",
"8	c #214AE2",
"9	c #244CE2",
"0	c #375CE5",
"a	c #1D47E2",
"b	c #385DE5",
"c	c #CAD4F8",
"d	c #E4E9FB",
"e	c #A1B3F3",
"f	c #B3C1F5",
"g	c #748EED",
"h	c #3A5EE5",
"i	c #D1DAF9",
"j	c #A9B9F4",
"k	c #1E48E2",
"l	c #6F8AEC",
"m	c #9DB0F2",
"n	c #AFBEF5",
"o	c #C8D2F8",
"p	c #486AE7",
"q	c #D3DBF9",
"r	c #CDD6F8",
"s	c #F8F9FE",
"                    ",
"     .+.            ",
"     @#@            ",
"    $%#&            ",
"    *=-;  $>,'      ",
"    )!~{  *]^/      ",
"    )!~{  )!~{      ",
"    (_:/  )!~{      ",
"    @#<.  )!~{      ",
"   $[-}.$|,1-{      ",
"   *2-34%5678+      ",
"   *}-###90abc      ",
"   $d+&e&fg#hi      ",
"          jkl|      ",
"         .<#m$      ",
"         n:0o       ",
"         n^pq       ",
"         .+rs       ",
"                    ",
"                    "};
