/* XPM */
static char * 6_xpm[] = {
"20 20 91 1",
" 	c #FFFFFF",
".	c #FEFDF9",
"+	c #F9F2DB",
"@	c #F9F1D9",
"#	c #FCF8EB",
"$	c #FDFAF1",
"%	c #FFFEFD",
"&	c #FDFBF5",
"*	c #F3E3B3",
"=	c #E8CB71",
"-	c #E8CA6E",
";	c #ECD48B",
">	c #EED997",
",	c #F2E1AE",
"'	c #F5E9C3",
")	c #FCF7EA",
"!	c #F0DDA2",
"~	c #E2BD4C",
"{	c #E6C663",
"]	c #E6C766",
"^	c #E2BE4D",
"/	c #E2BD4B",
"(	c #E0B83E",
"_	c #E2BC49",
":	c #F6EAC5",
"<	c #EFDB9D",
"[	c #F8EFD4",
"}	c #F5E9C2",
"|	c #F5E7BF",
"1	c #ECD48A",
"2	c #E1BA43",
"3	c #E4C054",
"4	c #F7ECCC",
"5	c #F2E2B0",
"6	c #E2BC48",
"7	c #E9CD78",
"8	c #FBF6E5",
"9	c #FCF9EF",
"0	c #ECD286",
"a	c #F2E2B1",
"b	c #FAF4E2",
"c	c #E9CC75",
"d	c #F4E5B9",
"e	c #F0DDA3",
"f	c #F1DEA6",
"g	c #E5C35C",
"h	c #F9F0D7",
"i	c #F8EED1",
"j	c #E7C96B",
"k	c #F1DFA9",
"l	c #EDD58D",
"m	c #FCF9EE",
"n	c #FDFBF3",
"o	c #FAF4E1",
"p	c #EACE7A",
"q	c #E5C560",
"r	c #FEFCF7",
"s	c #F7EDCF",
"t	c #F0DC9F",
"u	c #F4E7BC",
"v	c #F2E1AD",
"w	c #EED895",
"x	c #E6C664",
"y	c #E1BB47",
"z	c #E1BB46",
"A	c #EFD999",
"B	c #E9CD76",
"C	c #E6C561",
"D	c #EFDB9E",
"E	c #E5C35D",
"F	c #F4E5B8",
"G	c #FBF5E4",
"H	c #EDD691",
"I	c #EFDA9A",
"J	c #F8EFD2",
"K	c #E6C562",
"L	c #E5C45F",
"M	c #FBF6E8",
"N	c #F1E0AA",
"O	c #F2E0AB",
"P	c #F2E1AF",
"Q	c #E7C768",
"R	c #E7C86A",
"S	c #F3E3B2",
"T	c #F5E8C2",
"U	c #EDD58C",
"V	c #E3BE4F",
"W	c #E4C258",
"X	c #EED998",
"Y	c #F5E7BE",
"Z	c #FAF3DE",
"                    ",
"        .+@#$%      ",
"       &*=-;>,')%   ",
"      &!~{]^/(_;#   ",
"      :_(<[}|1234   ",
"     %5678   90(a   ",
"     bc~d%    e(e   ",
"     f(gh     iji   ",
"    .k_lm%n%  .o.   ",
"    opq:rst5un      ",
"    r<(vwx~yzf.     ",
"    nA6p(^wB2Cs%    ",
"    %D(ElF$GH~I$    ",
"     JKL;M  |/>$    ",
"     .*^_N. *(O%    ",
"      &PQRSTU(v     ",
"       .*VW~//'     ",
"        &a=1XY&     ",
"         .Z#$%      ",
"                    "};
