/* XPM */
static char * 7_xpm[] = {
"20 20 73 1",
" 	c #FFFFFF",
".	c #FAFAFA",
"+	c #EEEEEE",
"@	c #E9E9E9",
"#	c #ECECEC",
"$	c #FCFCFC",
"%	c #D4D4D4",
"&	c #8D8D8D",
"*	c #757575",
"=	c #797979",
"-	c #999999",
";	c #C5C5C5",
">	c #CACACA",
",	c #CFCFCF",
"'	c #E6E6E6",
")	c #F1F1F1",
"!	c #9E9E9E",
"~	c #353535",
"{	c #191919",
"]	c #161616",
"^	c #050505",
"/	c #3E3E3E",
"(	c #434343",
"_	c #686868",
":	c #737373",
"<	c #818181",
"[	c #E4E4E4",
"}	c #E7E7E7",
"|	c #C1C1C1",
"1	c #B1B1B1",
"2	c #ACACAC",
"3	c #898989",
"4	c #474747",
"5	c #383838",
"6	c #1A1A1A",
"7	c #151515",
"8	c #0F0F0F",
"9	c #111111",
"0	c #1D1D1D",
"a	c #BDBDBD",
"b	c #F7F7F7",
"c	c #D1D1D1",
"d	c #C6C6C6",
"e	c #9F9F9F",
"f	c #3A3A3A",
"g	c #131313",
"h	c #8A8A8A",
"i	c #F2F2F2",
"j	c #1B1B1B",
"k	c #141414",
"l	c #838383",
"m	c #949494",
"n	c #646464",
"o	c #222222",
"p	c #B6B6B6",
"q	c #EFEFEF",
"r	c #8E8E8E",
"s	c #909090",
"t	c #1C1C1C",
"u	c #2E2E2E",
"v	c #969696",
"w	c #C0C0C0",
"x	c #373737",
"y	c #828282",
"z	c #181818",
"A	c #7E7E7E",
"B	c #F9F9F9",
"C	c #8C8C8C",
"D	c #A0A0A0",
"E	c #808080",
"F	c #1E1E1E",
"G	c #E3E3E3",
"H	c #BCBCBC",
"                    ",
"                    ",
"    .+@#$           ",
"   .%&*=-;>,'@@@#$  ",
"   )!~{]^~/(_:::<[  ",
"   $}|1234/567890a  ",
"        bc>def^ghi  ",
"          $[&jkli   ",
"         #mnohpi    ",
"        q:^{ri      ",
"       bstuvi       ",
"      $wx0sb        ",
"      qyzAq         ",
"      BC^D          ",
"      #=]2          ",
"      #EFp          ",
"      $GHi          ",
"                    ",
"                    ",
"                    "};
