/* XPM */

/*
 * Copyright (C) 2004 Callum McKenzie <callum@spooky-possum.org>
 *
 * This program is free software: you can redistribute it and/or modify
 * it under the terms of the GNU General Public License as published by
 * the Free Software Foundation, either version 2 of the License, or
 * (at your option) any later version.
 *
 * This program is distributed in the hope that it will be useful,
 * but WITHOUT ANY WARRANTY; without even the implied warranty of
 * MERCHANTABILITY or FITNESS FOR A PARTICULAR PURPOSE.  See the
 * GNU General Public License for more details.
 *
 * You should have received a copy of the GNU General Public License
 * along with this program.  If not, see <http://www.gnu.org/licenses/>.
 */

static char * boom_xpm[] = {
"20 20 222 2",
"  	c None",
". 	c #C0BDBD",
"+ 	c #AFABAB",
"@ 	c #ABA6A6",
"# 	c #A8A3A3",
"$ 	c #A9A4A4",
"% 	c #AAA5A5",
"& 	c #ABA7A7",
"* 	c #ACA7A7",
"= 	c #ACA8A8",
"- 	c #B9B5B5",
"; 	c #B5B1B1",
"> 	c #B1AEAE",
", 	c #A8A4A4",
"' 	c #A9A5A5",
") 	c #130400",
"! 	c #A7A2A2",
"~ 	c #B9B6B6",
"{ 	c #C1BFBF",
"] 	c #C3C1C1",
"^ 	c #C7C1C1",
"/ 	c #B7B0B0",
"( 	c #070100",
"_ 	c #CAC1C1",
": 	c #C6BDBD",
"< 	c #C4BBBB",
"[ 	c #450E00",
"} 	c #571100",
"| 	c #C3BBBB",
"1 	c #BEB6B6",
"2 	c #B5AFAF",
"3 	c #000000",
"4 	c #B3ADAD",
"5 	c #B0AAAA",
"6 	c #C4C2C2",
"7 	c #E0D6D6",
"8 	c #E2D6D6",
"9 	c #2C0900",
"0 	c #7D1900",
"a 	c #210600",
"b 	c #EADDDD",
"c 	c #140400",
"d 	c #7C3F00",
"e 	c #772500",
"f 	c #060100",
"g 	c #E9DCDC",
"h 	c #E5D9D9",
"i 	c #480E00",
"j 	c #0C0200",
"k 	c #CBC2C2",
"l 	c #AEA9A9",
"m 	c #D9D2D2",
"n 	c #ECE0E0",
"o 	c #010000",
"p 	c #6A2200",
"q 	c #7D4900",
"r 	c #511000",
"s 	c #671500",
"t 	c #A99E00",
"u 	c #976F00",
"v 	c #4D0F00",
"w 	c #290800",
"x 	c #941E00",
"y 	c #AA2200",
"z 	c #D5CBCB",
"A 	c #D7D0D0",
"B 	c #EBDFDF",
"C 	c #EFE2E2",
"D 	c #551400",
"E 	c #E8E500",
"F 	c #A49600",
"G 	c #6E3100",
"H 	c #F4F100",
"I 	c #C6C200",
"J 	c #A02000",
"K 	c #973000",
"L 	c #746900",
"M 	c #6E1600",
"N 	c #E8DCDC",
"O 	c #C7BEBE",
"P 	c #ADA8A8",
"Q 	c #020000",
"R 	c #591200",
"S 	c #B9B600",
"T 	c #FDFA00",
"U 	c #DCD900",
"V 	c #8C8B05",
"W 	c #414111",
"X 	c #2E2C0C",
"Y 	c #EDEB00",
"Z 	c #9D8700",
"` 	c #5C1200",
" .	c #E3D7D7",
"..	c #641400",
"+.	c #6D1700",
"@.	c #852F00",
"#.	c #975B00",
"$.	c #A29E00",
"%.	c #B9B700",
"&.	c #ECE900",
"*.	c #3E3D10",
"=.	c #232323",
"-.	c #1F1F19",
";.	c #EFEC00",
">.	c #924F00",
",.	c #410D00",
"'.	c #0A0200",
").	c #B6AFAF",
"!.	c #AAA6A6",
"~.	c #2D0900",
"{.	c #6B2E00",
"].	c #DEDB00",
"^.	c #FFFC00",
"/.	c #616008",
"(.	c #C6C300",
"_.	c #E4E100",
":.	c #5C5B0C",
"<.	c #55550D",
"[.	c #B8B500",
"}.	c #9D8800",
"|.	c #9B6200",
"1.	c #762000",
"2.	c #961E00",
"3.	c #090200",
"4.	c #AEAAAA",
"5.	c #280800",
"6.	c #792E00",
"7.	c #C6C400",
"8.	c #1C1C12",
"9.	c #DFDD00",
"0.	c #F7F500",
"a.	c #927300",
"b.	c #9D2100",
"c.	c #2B0900",
"d.	c #360B00",
"e.	c #582900",
"f.	c #171717",
"g.	c #E2DF00",
"h.	c #B8B601",
"i.	c #B0AE02",
"j.	c #EEEC00",
"k.	c #DDDA00",
"l.	c #8C4200",
"m.	c #8F1D00",
"n.	c #0E0300",
"o.	c #BCB5B5",
"p.	c #D4CECE",
"q.	c #160400",
"r.	c #6F2700",
"s.	c #CDCB00",
"t.	c #2C2B13",
"u.	c #B2B001",
"v.	c #888706",
"w.	c #212121",
"x.	c #212119",
"y.	c #4E4D0C",
"z.	c #C5C300",
"A.	c #B22500",
"B.	c #040100",
"C.	c #C0B8B8",
"D.	c #931D00",
"E.	c #6F5C00",
"F.	c #CCCA00",
"G.	c #D0CD00",
"H.	c #979501",
"I.	c #929104",
"J.	c #222222",
"K.	c #58570C",
"L.	c #FEFB00",
"M.	c #964900",
"N.	c #3E0C00",
"O.	c #531100",
"P.	c #702400",
"Q.	c #E3E000",
"R.	c #F1EE00",
"S.	c #8F8D05",
"T.	c #32310C",
"U.	c #813B00",
"V.	c #9B7F00",
"W.	c #6E6300",
"X.	c #761800",
"Y.	c #CCC8C8",
"Z.	c #E5DBDB",
"`.	c #892100",
" +	c #F7F400",
".+	c #A79A00",
"++	c #AB9E00",
"@+	c #A29900",
"#+	c #801A00",
"$+	c #651400",
"%+	c #7F1900",
"&+	c #A12000",
"*+	c #E6DBDB",
"=+	c #7F2B00",
"-+	c #895E00",
";+	c #781800",
">+	c #621400",
",+	c #967300",
"'+	c #521000",
")+	c #CDC9C9",
"!+	c #E5DADA",
"~+	c #0D0300",
"{+	c #921D00",
"]+	c #E1D8D8",
"^+	c #531000",
"/+	c #901F00",
"(+	c #3D0C00",
"_+	c #E2D7D7",
":+	c #C4BCBC",
"<+	c #D2CCCC",
"[+	c #D6CFCF",
"}+	c #030100",
"|+	c #0F0300",
"1+	c #C7C4C4",
"2+	c #1C0600",
"3+	c #D5CECE",
"4+	c #D5CFCF",
"5+	c #C5C1C1",
"6+	c #ADA9A9",
"7+	c #B5B2B2",
"8+	c #C1BEBE",
"9+	c #BCB9B9",
". + @ # $ # # # # # # # # % & * = % # - ",
"; > @ , ' $ # # # ) ) # ! ! ! # , $ & ~ ",
"{ ] ^ / ( / _ : < [ } | 1 2 ! 3 4 5 * + ",
"6 ] 7 8 9 0 a b c d e f g h i j k ! @ l ",
"6 6 m n o p q r s t u v w x y 3 z ! * l ",
"6 6 A B C D E F G H I J K L M C N O P l ",
"6 6 A B Q R S T U V W X Y Z ` C  ./ # = ",
"6 3 ..+.@.#.$.%.&.*.=.-.;.>.x ,.'.).! !.",
"6 6 ~.{.].^./.(.^._.:.<.U [.}.|.1.2.3.4.",
"6 6 A 5.6.7.8.9.^.^.^.^.^.^.0.a.b.c.! 4.",
"6 6 A B d.e.f.g.^.h.i.j.^.k.l.m.n.o.! % ",
"6 6 p.q.r.s.t.u.^.v.w.x.y.z.A.B.g C.! , ",
"6 6 '.D.E.F.G.H.^.I.J.=.K.L.M.N.g | # # ",
"6 6 Q w O.R P.Q.^.R.S.T.U.V.W.X.g < # # ",
"6 6 Y.Z.C o `. +.+++^.@+#+$+%+&+o < # # ",
"6 6 Y.*+C ( =+-+;+>+a.,+'+C C 3 3 < # # ",
"6 6 )+!+B ~+{+,.]+]+^+/+(+B B B _+:+$ # ",
"6 6 <+m [+}+|+1+1+1+1+[ 2+3+A 4+)+5+6+# ",
"6 6 6 6 6 6 6 6 6 6 6 6 3 6 6 6 6 ] 7+% ",
"6 6 6 6 6 6 6 6 6 6 6 6 6 6 6 6 6 6 8+9+"};
