/* XPM */
static char * marked_xpm[] = {
"20 20 127 2",
"  	c None",
". 	c #C0BDBD",
"+ 	c #AFABAB",
"@ 	c #ABA6A6",
"# 	c #A8A3A3",
"$ 	c #A9A4A4",
"% 	c #AAA5A5",
"& 	c #ABA7A7",
"* 	c #ACA7A7",
"= 	c #ACA8A8",
"- 	c #B9B5B5",
"; 	c #B5B1B1",
"> 	c #B1AEAE",
", 	c #A8A4A4",
"' 	c #A9A5A5",
") 	c #100202",
"! 	c #690C0C",
"~ 	c #960F0F",
"{ 	c #8C1010",
"] 	c #690F0F",
"^ 	c #3A0B0B",
"/ 	c #0C0303",
"( 	c #B9B6B6",
"_ 	c #C1BFBF",
": 	c #C3C1C1",
"< 	c #600C03",
"[ 	c #5C0E07",
"} 	c #360A07",
"| 	c #220807",
"1 	c #250909",
"2 	c #4E0F0F",
"3 	c #B81B1B",
"4 	c #E81B1B",
"5 	c #F51818",
"6 	c #E91B1B",
"7 	c #D92020",
"8 	c #CA2626",
"9 	c #6F1818",
"0 	c #1C1C1C",
"a 	c #424242",
"b 	c #B0AAAA",
"c 	c #C4C2C2",
"d 	c #931305",
"e 	c #CA1F11",
"f 	c #C2241B",
"g 	c #B92925",
"h 	c #B92B2B",
"i 	c #C82626",
"j 	c #D82121",
"k 	c #CA2525",
"l 	c #711919",
"m 	c #181818",
"n 	c #252525",
"o 	c #0B0B0B",
"p 	c #AEA9A9",
"q 	c #C92626",
"r 	c #E81C1C",
"s 	c #E91C1C",
"t 	c #151515",
"u 	c #2E2E2E",
"v 	c #1A1A1A",
"w 	c #212121",
"x 	c #262626",
"y 	c #ADA8A8",
"z 	c #E3D7D7",
"A 	c #2F2F2F",
"B 	c #D92121",
"C 	c #1E1E1E",
"D 	c #292929",
"E 	c #A7A2A2",
"F 	c #AAA6A6",
"G 	c #1B1B1B",
"H 	c #AEAAAA",
"I 	c #E9DCDC",
"J 	c #313131",
"K 	c #BF1D1D",
"L 	c #7C0F0F",
"M 	c #5F0909",
"N 	c #5D0B0B",
"O 	c #701111",
"P 	c #8E1B1B",
"Q 	c #651616",
"R 	c #202020",
"S 	c #444444",
"T 	c #373737",
"U 	c #2F0602",
"V 	c #6C1009",
"W 	c #8D1A14",
"X 	c #9A221F",
"Y 	c #962323",
"Z 	c #721616",
"` 	c #0F0303",
" .	c #EFE2E2",
"..	c #131313",
"+.	c #000000",
"@.	c #0D0D0D",
"#.	c #1D1D1D",
"$.	c #282828",
"%.	c #CCC8C8",
"&.	c #E5DBDB",
"*.	c #101010",
"=.	c #C4BBBB",
"-.	c #2C2C2C",
";.	c #E6DBDB",
">.	c #575757",
",.	c #6B6B6B",
"'.	c #5C5C5C",
").	c #4E4E4E",
"!.	c #4C4C4C",
"~.	c #3A3A3A",
"{.	c #CDC9C9",
"].	c #E5DADA",
"^.	c #EBDFDF",
"/.	c #DFD6D6",
"(.	c #E1D7D7",
"_.	c #E1D8D8",
":.	c #727272",
"<.	c #777777",
"[.	c #595959",
"}.	c #D2CCCC",
"|.	c #D9D2D2",
"1.	c #D6CFCF",
"2.	c #C7C4C4",
"3.	c #565656",
"4.	c #242424",
"5.	c #C1BEBE",
"6.	c #BCB9B9",
". + @ # $ # # # # # # # # % & * = % # - ",
"; > @ , ' $ # # ) ! ~ { ] ^ / # , $ & ( ",
"_ : < [ } | 1 2 3 4 5 6 7 8 9 0 a b * + ",
"c : d e f g h i j 4 5 6 7 k l m n o @ p ",
"c c d e f g h q j r 5 s 7 8 l t u v * p ",
"c c d e f g h i j r 5 s 7 8 l t w x y p ",
"c c d e f g h i j r 5 s 7 8 l t z A # = ",
"c c d e f g h i B r 5 s 7 8 l C D A E F ",
"c c d e f g h i j r 5 s 7 8 l G n u E H ",
"c c d e f g h q B r 5 s B 8 l t I u E H ",
"c c d e f g h q j 4 5 6 7 8 l t I J E % ",
"c c d e f g h i j r 5 s 7 8 l t I J E , ",
"c c d e f g h i K L M N O P Q R S T v # ",
"c c U V W X Y Z `  . .n ..+.+.@.I #.$.# ",
"c c %.&. .+.+. . . . .J *. . . .I =.-.# ",
"c c %.;. . . . . . . .>.,.'.).!.!.!.~.# ",
"c c {.].^.;./.(._._._.:.<.<.<.<.<.<.[.# ",
"c c }.|.1.{.c 2.2.2.2.3.<.<.<.<.<.<.!.# ",
"c c c c c c c c c c c 4.~.~.~.~.~.~.w % ",
"c c c c c c c c c c c c c c c c c c 5.6."};
