/* XPM */
static char * mine_xpm[] = {
"20 20 132 2",
"  	c None",
". 	c #C0BDBD",
"+ 	c #AFABAB",
"@ 	c #ABA6A6",
"# 	c #A8A3A3",
"$ 	c #A9A4A4",
"% 	c #010101",
"& 	c #AAA5A5",
"* 	c #ABA7A7",
"= 	c #ACA7A7",
"- 	c #ACA8A8",
"; 	c #B9B5B5",
"> 	c #B5B1B1",
", 	c #B1AEAE",
"' 	c #A8A4A4",
") 	c #A9A5A5",
"! 	c #080808",
"~ 	c #A7A2A2",
"{ 	c #B9B6B6",
"] 	c #C1BFBF",
"^ 	c #C3C1C1",
"/ 	c #C7C1C1",
"( 	c #B7B0B0",
"_ 	c #B6AFAF",
": 	c #CAC1C1",
"< 	c #C6BDBD",
"[ 	c #C4BBBB",
"} 	c #090909",
"| 	c #C3BBBB",
"1 	c #BEB6B6",
"2 	c #B5AFAF",
"3 	c #B1AAAA",
"4 	c #B3ADAD",
"5 	c #B0AAAA",
"6 	c #C4C2C2",
"7 	c #E0D6D6",
"8 	c #070707",
"9 	c #030303",
"0 	c #E2D6D6",
"a 	c #ECDFDF",
"b 	c #000000",
"c 	c #040404",
"d 	c #E5D9D9",
"e 	c #D3C9C9",
"f 	c #020202",
"g 	c #AEA9A9",
"h 	c #D9D2D2",
"i 	c #151515",
"j 	c #161616",
"k 	c #2B2B2B",
"l 	c #323232",
"m 	c #2D2D2D",
"n 	c #1F1F1F",
"o 	c #0D0D0D",
"p 	c #D7D0D0",
"q 	c #EBDFDF",
"r 	c #0F0F0F",
"s 	c #454545",
"t 	c #484848",
"u 	c #3E3E3E",
"v 	c #343434",
"w 	c #282828",
"x 	c #181818",
"y 	c #E8DCDC",
"z 	c #C7BEBE",
"A 	c #ADA8A8",
"B 	c #313131",
"C 	c #4B4B4B",
"D 	c #545454",
"E 	c #575757",
"F 	c #535353",
"G 	c #4A4A4A",
"H 	c #3D3D3D",
"I 	c #303030",
"J 	c #222222",
"K 	c #E3D7D7",
"L 	c #616161",
"M 	c #696969",
"N 	c #606060",
"O 	c #525252",
"P 	c #444444",
"Q 	c #353535",
"R 	c #262626",
"S 	c #1C1C1C",
"T 	c #0A0A0A",
"U 	c #AAA6A6",
"V 	c #767676",
"W 	c #666666",
"X 	c #555555",
"Y 	c #464646",
"Z 	c #373737",
"` 	c #272727",
" .	c #1D1D1D",
"..	c #121212",
"+.	c #BBB4B4",
"@.	c #AEAAAA",
"#.	c #676767",
"$.	c #2A2A2A",
"%.	c #232323",
"&.	c #434343",
"*.	c #050505",
"=.	c #202020",
"-.	c #3C3C3C",
";.	c #2F2F2F",
">.	c #1B1B1B",
",.	c #D4CECE",
"'.	c #333333",
").	c #1E1E1E",
"!.	c #191919",
"~.	c #101010",
"{.	c #C0B8B8",
"].	c #CAC6C6",
"^.	c #171717",
"/.	c #C8C5C5",
"(.	c #E0D7D7",
"_.	c #E9DCDC",
":.	c #CCC8C8",
"<.	c #E5DBDB",
"[.	c #CDC9C9",
"}.	c #E6DBDB",
"|.	c #DFD6D6",
"1.	c #C4BCBC",
"2.	c #D2CCCC",
"3.	c #D6CFCF",
"4.	c #C7C4C4",
"5.	c #D5CECE",
"6.	c #D5CFCF",
"7.	c #C5C1C1",
"8.	c #ADA9A9",
"9.	c #B5B2B2",
"0.	c #C1BEBE",
"a.	c #BCB9B9",
". + @ # $ # # # # % % # # & * = - & # ; ",
"> , @ ' ) $ # # # ! ! # ~ ~ ~ # ' $ * { ",
"] ^ / ( _ ( : < [ } } | 1 2 ~ 3 4 5 = + ",
"6 ^ 7 8 9 0 a b b c c b b d e f c ~ @ g ",
"6 6 h 9 i c % j k l m n o % f o f ~ = g ",
"6 6 p q c r l s t s u v w x ! f y z A g ",
"6 6 p q % B C D E F G H I J i b K ( # - ",
"6 6 p b j s D L M N O P Q R S T b _ ~ U ",
"6 6 p b k t E M V W X Y Z `  ...b +.~ @.",
"% ! } c l s F N #.$.%.&.Q R S j f *.9 b ",
"% ! } c m u G O X %.=.-.;.J >.i f *.9 b ",
"6 6 ,.b n v H P Y &.-.'.` ).!.~.b {.~ ' ",
"6 6 ].b o w I Q Z Q ;.` n >.^.! b | # # ",
"6 6 /.(.b ^.J R ` R J ).>.x ~.b _.[ # # ",
"6 6 :.<.f ! i S  .S >.!.^.~.*.% _.[ # # ",
"6 6 :.f o f b } ..j i ~.! b % 8 % [ # # ",
"6 6 [.c f }.|.b b f f b b q q % f 1.$ # ",
"6 6 2.h 3.[.6 4.4.*.*.4.:.5.p 6.[.7.8.# ",
"6 6 6 6 6 6 6 6 6 9 9 6 6 6 6 6 6 ^ 9.& ",
"6 6 6 6 6 6 6 6 6 b b 6 6 6 6 6 6 6 0.a."};
